<?xml version="1.0" encoding="UTF-8" standalone="no"?>
<!-- Created with Inkscape (http://www.inkscape.org/) -->

<svg
   xmlns:dc="http://purl.org/dc/elements/1.1/"
   xmlns:cc="http://creativecommons.org/ns#"
   xmlns:rdf="http://www.w3.org/1999/02/22-rdf-syntax-ns#"
   xmlns:svg="http://www.w3.org/2000/svg"
   xmlns="http://www.w3.org/2000/svg"
   xmlns:sodipodi="http://sodipodi.sourceforge.net/DTD/sodipodi-0.dtd"
   xmlns:inkscape="http://www.inkscape.org/namespaces/inkscape"
   width="210mm"
   height="297mm"
   id="svg2"
   version="1.1"
   inkscape:version="0.48.5 r10040"
   sodipodi:docname="Documento nuevo 1">
  <defs
     id="defs4" />
  <sodipodi:namedview
     id="base"
     pagecolor="#ffffff"
     bordercolor="#666666"
     borderopacity="1.0"
     inkscape:pageopacity="0.0"
     inkscape:pageshadow="2"
     inkscape:zoom="0.7"
     inkscape:cx="479.29009"
     inkscape:cy="852.89548"
     inkscape:document-units="px"
     inkscape:current-layer="layer1"
     showgrid="false"
     inkscape:window-width="1920"
     inkscape:window-height="1017"
     inkscape:window-x="0"
     inkscape:window-y="27"
     inkscape:window-maximized="1" />
  <metadata
     id="metadata7">
    <rdf:RDF>
      <cc:Work
         rdf:about="">
        <dc:format>image/svg+xml</dc:format>
        <dc:type
           rdf:resource="http://purl.org/dc/dcmitype/StillImage" />
        <dc:title></dc:title>
      </cc:Work>
    </rdf:RDF>
  </metadata>
  <g
     inkscape:label="Capa 1"
     inkscape:groupmode="layer"
     id="layer1">
    <path
       inkscape:connector-curvature="0"
       id="path3068"
       d="m 420.61878,509.19734 1.0414,-0.0962 -1.41334,-0.0271 c -6.56343,-0.12593 -15.23519,-1.6729 -21.42321,-3.82171 -3.21024,-1.11477 -8.36551,-3.4967 -10.66656,-4.92835 -0.50709,-0.3155 -1.42944,-0.89164 -2.04964,-1.2803 -1.82604,-1.14435 -2.02031,-0.91982 -0.73133,0.84522 0.45905,0.62857 0.80996,1.16751 0.77982,1.19766 -0.0301,0.0302 -2.36394,-1.14282 -5.18622,-2.60658 -7.4271,-3.85208 -11.37824,-5.46391 -15.48372,-6.31646 -2.29063,-0.47567 -5.68141,-0.64523 -7.64913,-0.38246 -2.90939,0.38848 -3.26427,0.58763 -2.42051,1.35829 0.58112,0.53076 0.55299,0.5338 -0.60071,0.065 -0.50343,-0.20456 -1.07231,-0.37192 -1.26416,-0.37192 -0.49062,0 -2.11763,0.57277 -4.23071,1.48939 l -1.8052,0.78304 -1.23656,-0.49089 c -2.0185,-0.80132 -2.33231,-0.99741 -4.50956,-2.81794 -2.65936,-2.22364 -11.60752,-9.27917 -16.14179,-12.72763 -1.92289,-1.46243 -4.31443,-3.2837 -5.31454,-4.04728 -1.00011,-0.76359 -3.65657,-2.92389 -5.90325,-4.80067 -7.16311,-5.98372 -9.95931,-8.02018 -13.46973,-9.80989 -1.87506,-0.95596 -2.24472,-1.06237 -2.233,-0.64278 0.004,0.14319 1.73673,2.33572 3.85051,4.87229 2.11379,2.53657 3.82352,4.63399 3.79944,4.66092 -0.0241,0.027 -3.41379,-2.40412 -7.53264,-5.40236 -6.06745,-4.41669 -7.92648,-5.85337 -9.79478,-7.56954 -1.26829,-1.165 -3.12107,-2.73233 -4.11727,-3.48295 -0.99623,-0.7506 -1.85814,-1.4405 -1.91538,-1.5331 -0.0709,-0.11469 -0.44201,-0.13827 -1.16412,-0.074 l -1.0601,0.0944 -0.70666,-0.68661 c -0.38867,-0.37765 -0.70667,-0.80666 -0.70667,-0.95336 0,-0.1467 -0.26305,-0.53776 -0.58454,-0.86904 -0.6919,-0.71297 -1.17706,-0.81979 -3.26432,-0.71872 -1.22492,0.0593 -1.52282,0.13166 -2.45475,0.59621 -1.31893,0.65749 -3.02034,1.94335 -5.5238,4.17471 -2.18933,1.95136 -3.73342,2.83515 -5.25209,3.00612 -0.46616,0.0525 -1.03466,0.18982 -1.26333,0.30518 -0.22866,0.11535 -1.3333,1.13688 -2.45474,2.27003 -2.18393,2.20676 -3.5734,3.23394 -5.33038,3.94053 -1.64951,0.66334 -2.78176,1.17858 -3.1802,1.44719 -2.50216,1.6868 -8.113,4.54918 -11.45547,5.84403 -1.18646,0.45963 -2.32457,0.93778 -2.52913,1.06253 -0.79567,0.4853 -1.45371,0.70269 -2.45474,0.81097 -0.57278,0.0619 -2.01215,0.36136 -3.19861,0.66535 -3.48415,0.89268 -5.56274,0.86514 -12.57126,-0.1666 -2.20295,-0.32429 -3.34816,-0.40405 -6.457,-0.44965 -2.57363,-0.0378 -3.84545,-0.11051 -3.98712,-0.22808 -0.11441,-0.0949 -1.51221,-0.32785 -3.10624,-0.51753 -8.39024,-0.99849 -13.97552,-2.43387 -18.73323,-4.81437 -1.3092,-0.65504 -2.6827,-1.41417 -3.05222,-1.68695 l -0.67187,-0.49597 -0.18178,-1.71183 c -0.49006,-4.61501 -2.34437,-8.08218 -6.05974,-11.33037 -0.6842,-0.59818 -2.59106,-2.11157 -4.23745,-3.36312 -5.10157,-3.87804 -7.28769,-6.22628 -8.94016,-9.60307 -1.32643,-2.71054 -1.97148,-5.33441 -2.1579,-8.77757 -0.0745,-1.37577 -0.0393,-1.82398 0.22096,-2.81328 0.73639,-2.79937 0.22131,-5.47118 -2.01885,-10.47197 -1.20602,-2.69225 -1.71215,-4.20066 -2.2314,-6.65024 -0.3845,-1.81382 -0.4101,-2.16523 -0.41193,-5.65335 -0.001,-2.8872 0.0564,-4.05215 0.25893,-5.20703 0.38113,-2.17346 0.93482,-4.33234 1.61575,-6.29985 1.02527,-2.96251 1.05448,-3.10069 1.0585,-5.00685 0.004,-1.75633 -0.006,-1.80845 -0.59949,-3.21504 -0.95989,-2.27501 -1.24708,-3.5995 -1.33515,-6.15762 -0.0578,-1.67968 -0.0167,-2.58112 0.16622,-3.64492 0.78171,-4.54551 3.34345,-9.58065 6.95977,-13.67956 0.3934,-0.44591 0.71529,-0.92289 0.71529,-1.05996 0,-0.18035 -0.3775,-0.38101 -1.36664,-0.72642 -2.70112,-0.94322 -4.67629,-2.16948 -7.08198,-4.3968 -2.41135,-2.23254 -3.94404,-5.64731 -5.44597,-12.13343 -0.603,-2.60403 -0.64677,-3.46176 -0.28037,-5.49446 0.19587,-1.08665 0.25318,-2.23865 0.24794,-4.98387 -0.006,-3.17376 -0.0498,-3.81025 -0.39349,-5.72774 -0.49794,-2.77789 -0.56238,-2.94292 -1.17232,-3.00265 -0.47276,-0.0463 -0.4911,-0.0764 -0.97904,-1.60928 -0.36187,-1.13676 -0.53408,-2.02798 -0.63245,-3.273 -0.12796,-1.61929 -0.54989,-3.25332 -1.2005,-4.64913 -0.3293,-0.70648 -0.58886,-0.51099 -0.59261,0.44632 l -0.004,0.85543 -1.16164,-2.23158 c -1.17947,-2.26583 -3.54161,-6.34459 -5.08336,-8.77757 -0.46666,-0.73642 -1.08586,-1.81045 -1.37599,-2.38674 -0.99999,-1.9863 -5.14082,-7.49049 -6.20545,-8.24856 -0.32665,-0.2326 -0.44901,-0.43993 -0.44901,-0.76086 0,-0.88022 -0.91623,-2.29695 -3.62153,-5.59977 -0.82043,-1.00164 -1.61455,-1.86016 -1.76472,-1.90782 -0.15018,-0.0476 -0.5833,-0.32348 -0.96249,-0.61292 -0.37919,-0.28945 -0.79628,-0.54195 -0.92685,-0.56111 -0.13058,-0.0192 -0.23071,-0.11215 -0.22253,-0.20663 0.0355,-0.40982 0.0661,-0.4828 0.17452,-0.41581 0.0632,0.0391 0.56106,-0.67664 1.10624,-1.59052 2.93443,-4.91895 12.09708,-18.25682 13.54061,-19.71078 0.51349,-0.51719 1.43148,-1.45446 2.03998,-2.08281 4.90712,-5.06721 8.05673,-7.94158 11.70594,-10.68299 2.93673,-2.20616 4.83854,-3.39811 7.56951,-4.74412 2.35233,-1.15938 4.05764,-1.73316 5.92162,-1.99242 2.19401,-0.30516 3.58109,-1.07653 5.61564,-3.1229 1.45677,-1.46525 2.44344,-2.75163 3.62799,-4.73006 0.71985,-1.20231 0.97748,-1.86897 1.92978,-4.99371 0.60446,-1.98339 1.31417,-4.40953 1.57713,-5.39142 0.26297,-0.9819 0.62924,-2.08653 0.81392,-2.45475 0.18469,-0.36821 0.83874,-1.97495 1.45345,-3.57053 0.61471,-1.59559 1.27626,-3.31218 1.47014,-3.81466 0.33472,-0.86754 0.49123,-1.03536 3.10478,-3.32931 1.51376,-1.32865 4.25229,-3.79628 6.08562,-5.48361 3.26101,-3.00134 7.55455,-6.42718 13.54884,-10.81071 1.30547,-0.95467 2.43172,-1.81235 2.50278,-1.90597 0.1969,-0.25938 1.36879,-3.66046 1.36879,-3.97253 0,-0.15077 -0.10686,-0.33392 -0.23746,-0.40701 -0.20852,-0.1167 -0.11969,-0.50279 0.72911,-3.16881 1.03052,-3.23679 2.25836,-7.58406 4.4006,-15.58072 0.73044,-2.72657 1.35113,-4.97939 1.37932,-5.00626 0.0282,-0.0269 1.62452,-0.29243 3.5474,-0.59013 1.92289,-0.2977 4.40926,-0.70604 5.52529,-0.90743 1.11603,-0.20139 2.35618,-0.36617 2.75592,-0.36617 0.39972,0 2.26493,-0.23335 4.14491,-0.51857 1.87998,-0.28522 3.75287,-0.52056 4.162,-0.52299 0.53568,-0.003 0.6814,-0.0448 0.5207,-0.14861 -0.21056,-0.13608 -0.12801,-0.14877 0.96702,-0.14877 0.0409,0 0.0577,0.0294 0.0372,0.0653 -0.0522,0.0915 7.63774,5.85137 10.60003,7.93962 1.35011,0.95175 2.73023,2.00273 3.06694,2.33552 0.33671,0.33278 1.46228,1.26463 2.50128,2.07078 1.54899,1.20185 2.02566,1.66813 2.6478,2.59011 0.41731,0.61842 1.54361,2.16822 2.5029,3.444 1.27169,1.69125 2.01413,2.85835 2.74075,4.30842 1.2325,2.45957 1.91736,3.37991 3.18302,4.27746 0.54275,0.38489 2.31569,1.69694 3.93986,2.91564 3.04453,2.28449 14.34679,9.69346 15.27158,10.01098 0.70773,0.24299 5.74752,1.31344 8.02622,1.70476 1.23047,0.2113 2.10947,0.28592 2.61869,0.2223 0.42158,-0.0526 2.23253,-0.601 4.02432,-1.21851 9.00532,-3.10348 10.69109,-3.35455 17.46558,-2.6012 11.34787,1.26193 16.62265,2.5922 23.88151,6.02277 2.06183,0.97443 2.09751,0.98487 3.86541,1.1316 0.98142,0.0814 4.3284,0.13817 7.43774,0.12606 7.75302,-0.0302 9.42147,0.17236 14.45114,1.75464 4.32754,1.3614 6.63704,1.81804 10.91455,2.15806 2.32875,0.18511 8.40197,0.1033 11.60423,-0.15631 1.02281,-0.0829 2.24822,-0.17562 2.72315,-0.20601 0.47491,-0.0304 0.91376,-0.11522 0.97522,-0.18853 0.90377,-1.07805 1.20103,-1.89405 1.20749,-3.31468 0.006,-1.33719 1.4616,-4.147 2.96277,-5.71943 0.89992,-0.94264 1.15418,-1.0627 3.36091,-1.58697 3.23618,-0.76884 3.94524,-1.38376 3.94524,-3.42136 l 0,-0.8722 0.78106,0.0765 c 1.11827,0.10958 3.52898,-0.2962 5.45083,-0.91749 3.1055,-1.00394 6.23855,-2.55995 10.87693,-5.40197 1.26828,-0.7771 3.51103,-2.1496 4.98387,-3.04999 1.47284,-0.90039 3.56496,-2.06868 4.64913,-2.59619 1.12516,-0.54744 1.97124,-1.04796 1.97124,-1.16612 0,-0.11385 0.0567,-0.20701 0.12607,-0.20701 0.0693,0 0.70243,-0.36184 1.40687,-0.8041 1.06837,-0.67075 1.30955,-0.76944 1.45425,-0.59509 0.29221,0.3521 0.51958,0.24134 1.24317,-0.60563 3.52615,-4.1274 12.19469,-7.03636 23.25735,-7.80466 1.16713,-0.0811 2.20482,-0.11527 2.30598,-0.076 0.28083,0.10893 2.88654,4.23889 3.88708,6.1609 1.92795,3.7036 2.88401,7.15445 3.15854,11.40072 0.0542,0.83836 0.13923,1.58855 0.18897,1.66711 0.0497,0.0786 1.12811,0.21979 2.39639,0.31385 7.65934,0.56803 12.14386,1.69598 15.57968,3.9186 3.6203,2.34197 6.00069,6.44875 5.98936,10.33321 -0.007,2.49891 -0.58641,4.7896 -2.54012,10.0473 -1.56673,4.21627 -2.27452,6.64637 -2.44711,8.40183 l -0.10555,1.07367 2.66547,2.64563 c 4.61303,4.57867 7.30754,8.39233 8.73419,12.3619 0.52517,1.46125 0.51027,1.70152 -0.12424,2.0041 -0.31046,0.14804 -0.55035,0.18854 -0.60388,0.10194 -0.21808,-0.35288 -0.69764,-0.0982 -1.32836,0.70538 -1.50015,1.91133 -2.0944,3.81228 -1.96693,6.29202 0.13876,2.69983 0.77182,4.53843 3.5752,10.38366 2.07035,4.31677 2.70036,5.89519 3.15933,7.91533 0.64373,2.83334 0.42938,5.2325 -0.65942,7.3806 -0.70275,1.38651 -0.99947,1.81041 -1.15698,1.6529 -0.0635,-0.0635 -0.0993,-2.31334 -0.0794,-4.99956 0.0326,-4.41181 0.007,-5.02747 -0.26617,-6.3674 -0.49727,-2.44016 -1.30323,-4.05443 -2.70688,-5.42162 -0.77994,-0.75968 -2.35272,-1.75342 -3.28954,-2.07843 -0.73145,-0.25376 -0.78416,-0.52591 -0.77512,-4.00232 0.008,-3.05976 0.0727,-3.57087 1.11077,-8.77756 1.16815,-5.85886 1.24298,-7.39926 0.51114,-10.52071 -0.53231,-2.27037 -0.64941,-2.48829 -1.49112,-2.77509 -0.93462,-0.31846 -1.05224,-0.30873 -1.48366,0.12268 -0.30094,0.30094 -0.36517,0.512 -0.36517,1.19996 0,0.45913 -0.069,0.9636 -0.15317,1.12101 -0.16143,0.30164 -0.88294,0.73563 -1.22296,0.73563 -0.27328,0 -1.54844,-1.97354 -2.48099,-3.83976 -1.56684,-3.13558 -2.09304,-5.44363 -2.09242,-9.17782 0,-3.5864 0.46602,-6.13935 2.08835,-11.45547 1.27852,-4.18948 1.92742,-6.52479 1.92221,-6.91768 -0.007,-0.53141 -0.89758,-2.80265 -1.49574,-3.81476 -0.73487,-1.24344 -2.25759,-2.71346 -3.4088,-3.29085 -2.13414,-1.07036 -2.41801,-1.10932 -8.92634,-1.22533 -6.42299,-0.11449 -6.7138,-0.1507 -8.51824,-1.06088 -1.82429,-0.9202 -3.41714,-3.0388 -4.35268,-5.7894 -0.19321,-0.56806 -0.45589,-1.18215 -0.58371,-1.36466 -0.12784,-0.18251 -0.23243,-0.61127 -0.23243,-0.9528 0,-0.70786 0.30572,-1.03183 1.93018,-2.04547 0.94655,-0.59062 1.49006,-1.25865 1.49104,-1.83263 10e-4,-0.47201 -0.82014,-2.53037 -1.26552,-3.17305 -0.44639,-0.64414 -1.27829,-1.26741 -2.53655,-1.9004 -1.08677,-0.54671 -1.86385,-1.3678 -2.22574,-2.3518 -0.56596,-1.53888 -0.65146,-1.69653 -0.91916,-1.69501 -0.4528,0.003 -4.91864,1.5502 -7.95133,2.75551 -7.5768,3.0113 -12.14924,5.39394 -24.94396,12.99797 -8.94531,5.3163 -15.12198,8.7642 -20.45234,11.41681 -1.93552,0.96318 -2.0601,1.05163 -2.21648,1.57355 -0.30081,1.00395 0.11786,1.72148 2.14971,3.6842 2.59017,2.50205 2.93447,3.33936 1.95729,4.75993 -0.69139,1.0051 -0.77558,1.55452 -0.37647,2.45677 0.56092,1.26804 1.73495,2.64624 4.58698,5.38463 1.95725,1.87926 2.92934,2.92523 3.22716,3.47243 l 0.42619,0.78308 -0.43004,-0.10197 c -0.80009,-0.18971 -2.95167,-1.29525 -4.3725,-2.24671 -3.96699,-2.65649 -6.92522,-6.33999 -7.67807,-9.56045 -0.3605,-1.54217 -0.23083,-3.70529 0.29645,-4.9449 0.53818,-1.26525 0.54048,-1.36311 0.038,-1.60907 -0.86121,-0.4215 -3.0592,0.29042 -4.44296,1.43906 -1.60594,1.33307 -2.82229,3.07228 -5.32126,7.60862 -1.87709,3.40746 -2.094,3.7452 -5.77552,8.99292 -4.36728,6.22519 -8.06355,11.9797 -8.05936,12.54712 10e-4,0.14031 0.20188,0.64949 0.44632,1.13151 0.56196,1.10818 0.55914,1.63257 -0.0177,3.28639 -0.5531,1.58597 -0.52278,2.11645 0.18869,3.30175 0.79409,1.32293 2.19017,2.71388 4.0686,4.05365 0.96093,0.68539 2.14582,1.57794 2.63308,1.98343 0.88089,0.73309 2.34273,2.54197 2.34701,2.90421 0.004,0.32181 -0.70122,0.47983 -2.14088,0.47983 -1.25239,0 -1.4672,-0.0436 -2.32499,-0.47228 -1.78963,-0.89429 -3.19013,-2.6033 -5.64782,-6.89195 -1.7867,-3.1178 -1.81813,-3.20882 -1.46205,-4.23428 0.46635,-1.34302 0.71761,-2.77201 0.71761,-4.08131 0,-1.18305 0.0251,-1.27356 0.66639,-2.39881 0.85776,-1.50516 1.57425,-3.22507 2.24983,-5.40061 0.51629,-1.66255 0.5765,-1.77311 1.39287,-2.5573 0.4693,-0.4508 0.96795,-1.04142 1.10813,-1.3125 0.33717,-0.65202 1.10841,-3.178 1.03149,-3.37842 -0.041,-0.1068 -1.72263,-0.15512 -5.2258,-0.15014 -5.10251,0.007 -7.02985,-0.10777 -6.31837,-0.37707 0.18411,-0.0697 0.33475,-0.19724 0.33475,-0.28346 0,-0.25642 -0.56315,-0.40199 -2.60352,-0.67302 -1.06372,-0.1413 -1.98751,-0.28832 -2.05285,-0.3267 -0.0653,-0.0384 -0.0341,-0.17192 0.0696,-0.29675 0.30017,-0.36168 -0.26834,-0.70116 -1.68507,-1.0062 -0.68263,-0.14698 -2.41271,-0.61946 -3.84465,-1.04995 -4.14362,-1.24572 -5.97347,-1.41638 -11.77734,-1.09841 -4.66014,0.2553 -9.43979,0.25381 -11.18585,-0.004 -1.06263,-0.15659 -1.71386,-0.37732 -3.37378,-1.14356 -1.13134,-0.52223 -2.15509,-0.94951 -2.275,-0.94951 -0.11991,0 -0.26744,0.11715 -0.32784,0.26035 -0.0801,0.18983 -1.4962,77.24824 -1.55103,84.39986 -0.004,0.60095 0.0706,1.08253 0.19572,1.25368 0.1912,0.26148 2.00218,-0.65706 30.66545,-15.55393 16.75423,-8.7075 30.49105,-15.90688 30.52625,-15.99863 0.0352,-0.0917 -0.3422,-0.72843 -0.83866,-1.41487 -1.08739,-1.50348 -2.8112,-4.91006 -3.41699,-6.75265 -0.24211,-0.73643 -0.55587,-1.92982 -0.69722,-2.65199 l -0.25702,-1.31303 0.41027,-0.84416 c 0.22564,-0.46429 0.91019,-1.68515 1.52119,-2.71301 3.91488,-6.58567 10.42932,-13.20591 20.21216,-20.54042 3.74323,-2.80642 6.70656,-4.85948 16.29057,-11.28641 5.19587,-3.4843 10.48472,-7.06298 11.75301,-7.95263 2.32147,-1.62841 7.82108,-5.72169 9.40985,-7.00362 0.47049,-0.37962 0.85544,-0.62129 0.85544,-0.53703 0,0.31321 -2.49701,3.28302 -4.37828,5.20728 -4.86795,4.97919 -10.24631,8.96065 -22.32635,16.52759 -12.59987,7.89257 -17.55243,11.50141 -22.24561,16.21002 -3.28612,3.29691 -5.74092,6.6682 -7.22208,9.9184 -0.77615,1.70315 -1.55503,4.04316 -1.44418,4.33876 0.14226,0.37936 2.9121,4.37701 3.994,5.76447 1.11197,1.426 1.9208,2.21719 3.10595,3.0382 0.96798,0.67056 2.46088,1.20181 3.37732,1.20181 0.63904,0 1.7296,0.48197 1.8601,0.82207 0.0451,0.11743 -0.15055,0.53284 -0.43472,0.9231 -0.5935,0.81507 -0.76145,1.25842 -0.63164,1.6674 0.2376,0.7486 2.3971,0.75136 4.55021,0.006 2.75472,-0.95387 4.76909,-2.91127 7.94409,-7.71937 1.16656,-1.76661 2.24942,-3.32609 2.40633,-3.4655 0.15689,-0.13941 1.35459,-0.69436 2.66152,-1.23322 3.46506,-1.42868 9.68288,-4.55966 12.9849,-6.53853 3.96393,-2.37555 7.03017,-4.41165 13.79001,-9.15704 3.19117,-2.2402 7.2892,-5.05856 9.10672,-6.26303 3.24544,-2.15075 8.52357,-5.38545 9.21899,-5.64986 0.31655,-0.12034 0.33768,-0.10496 0.20263,0.1474 -0.17816,0.33288 -3.72362,3.69806 -5.46275,5.18494 -4.56732,3.90494 -10.1749,7.85504 -17.8263,12.55727 -3.0456,1.87168 -5.75035,3.46095 -17.92707,10.53363 -2.57748,1.49709 -4.87815,2.85657 -5.11262,3.02107 -0.32406,0.22735 -1.18748,1.83694 -3.60002,6.71112 -3.14552,6.35508 -4.55847,8.98446 -6.10655,11.36384 -0.44105,0.67787 -0.8019,1.35203 -0.8019,1.49814 0,0.33856 0.94375,1.44915 1.31366,1.54587 0.4379,0.11452 1.10556,-0.23734 2.01755,-1.06325 0.99165,-0.89806 1.38478,-0.95702 1.94464,-0.29167 0.64948,0.77187 0.50397,0.95528 -1.40777,1.77443 -2.22084,0.95161 -2.38036,1.03923 -2.38036,1.30766 0,0.40782 2.33437,4.97721 3.27965,6.41972 0.50907,0.77684 1.25802,1.79739 1.66436,2.26788 1.00891,1.16822 2.88313,2.5505 4.55933,3.3626 l 1.39526,0.67599 0.39001,-0.44935 c 3.12864,-3.6046 4.81106,-5.23994 7.76166,-7.54448 4.69493,-3.66689 9.64252,-6.68275 21.63897,-13.19024 13.27698,-7.2021 18.99693,-10.74883 23.71022,-14.70174 0.60325,-0.50594 1.15209,-0.91988 1.21964,-0.91988 0.31671,0 -1.01947,2.69839 -2.05424,4.14849 -3.16419,4.43423 -7.8768,7.41607 -20.12333,12.73279 -9.26982,4.02441 -12.67744,5.74362 -16.81128,8.48167 -3.46359,2.29408 -5.19016,4.04068 -9.12086,9.22661 -2.41148,3.18157 -4.5172,5.48879 -6.0099,6.58498 -0.50764,0.37282 -0.95391,0.7584 -0.9917,0.85688 -0.1082,0.28198 0.57581,2.08646 1.10135,2.90544 1.22184,1.90407 2.73435,2.42757 5.35091,1.85203 0.53186,-0.11699 1.24081,-0.21505 1.57542,-0.21793 0.51013,-0.004 0.63629,0.0559 0.78106,0.3737 0.095,0.20841 0.17265,0.57359 0.17265,0.81151 0,0.47663 -0.0386,0.49042 -1.85966,0.66455 -1.82387,0.17441 -2.8091,0.74359 -3.17262,1.83287 -0.13981,0.41891 -0.12337,0.52255 0.11431,0.72089 1.00311,0.83708 1.54466,1.49119 2.29378,2.77063 1.07338,1.83322 1.57995,2.40831 2.39577,2.71989 0.82909,0.31662 1.50667,0.12317 2.15502,-0.61527 0.75888,-0.86429 0.59604,-1.38683 -0.70816,-2.27251 -1.16029,-0.78794 -1.96231,-1.69563 -1.96231,-2.22088 l 0,-0.41557 1.41003,0.0617 c 3.4061,0.14896 7.73452,-1.04433 12.56118,-3.46297 3.16467,-1.58582 6.26902,-3.51245 14.14677,-8.77983 11.2735,-7.53791 15.59924,-9.98971 21.16102,-11.99394 1.33923,-0.4826 4.3021,-1.32564 4.65897,-1.32564 0.20785,0 -0.32703,0.50504 -1.52842,1.44316 -0.67753,0.52905 -1.23186,1.0489 -1.23186,1.15523 0,0.10634 1.15485,0.76586 2.56632,1.4656 1.41149,0.69974 3.56261,1.81224 4.7803,2.47222 1.21767,0.65998 2.33453,1.19996 2.48191,1.19996 0.309,0 0.33877,-0.0822 0.65064,-1.79584 0.44776,-2.46037 1.6355,-5.24527 3.34849,-7.85129 0.61094,-0.92941 0.95957,-1.6313 1.05176,-2.11742 0.214,-1.12839 0.68797,-1.90728 1.84887,-3.0383 1.02577,-0.99935 2.61212,-2.04608 2.61212,-1.72357 0,0.26563 -0.68226,1.98194 -1.17907,2.96613 -0.26129,0.51761 -0.86194,1.35696 -1.33477,1.86522 -0.83893,0.90178 -0.86205,0.94949 -0.95742,1.97579 -0.0538,0.57845 -0.2704,1.6797 -0.4814,2.44724 -0.647,2.35346 -0.6988,2.10763 0.55408,2.62918 4.21551,1.75481 11.76231,4.2516 25.04495,8.2859 7.72362,2.34587 11.50868,3.55414 14.69583,4.69121 7.28678,2.59969 8.9899,3.39299 9.77722,4.55421 0.85876,1.26659 2.85977,6.7611 3.15058,8.65106 0.12049,0.78309 0.22775,1.13549 0.29431,0.96702 0.0576,-0.14579 0.10944,0.18916 0.11518,0.74437 0.01,0.95777 -0.004,1.00146 -0.28104,0.85344 -0.41136,-0.22016 -0.89646,-0.90368 -1.79033,-2.52267 -0.82537,-1.49492 -1.22507,-2.15593 -3.03602,-5.02108 l -1.14581,-1.81278 -1.14538,-0.37586 c -1.73801,-0.57035 -3.67414,-0.99009 -17.58471,-3.81224 -11.38039,-2.30885 -15.54265,-3.21257 -20.30742,-4.40921 -4.13751,-1.03912 -5.4215,-1.52703 -12.64565,-4.80532 -2.86162,-1.29858 -9.23649,-4.52151 -10.71161,-5.41543 -0.49095,-0.29752 -1.01202,-0.54111 -1.15793,-0.54132 -0.14594,-1.5e-4 -0.94931,0.45683 -1.78528,1.01566 -2.391,1.59833 -4.48286,2.84285 -11.72346,6.97472 -12.47416,7.11842 -16.57915,9.92771 -21.03869,14.39808 -2.44565,2.45159 -3.86417,4.29072 -5.13424,6.65664 l -0.81982,1.52723 -1.11422,0.19535 c -1.53167,0.26854 -4.48314,0.14252 -6.002,-0.25624 -4.90705,-1.28837 -9.5568,-5.52184 -11.61629,-10.57633 -0.95339,-2.33986 -1.38691,-4.87864 -1.19784,-7.01464 0.1157,-1.30709 0.1409,-1.26589 -1.34092,-2.19252 -0.49095,-0.30701 -1.51011,-1.07236 -2.2648,-1.7008 -0.75469,-0.62843 -1.49461,-1.14261 -1.64429,-1.14261 -0.14967,0 -16.30256,8.33275 -35.89531,18.51721 -30.89662,16.0603 -35.62318,18.56037 -35.62318,18.84259 0,0.48426 130.51842,157.65915 130.93079,157.67149 0.26176,0.008 1.73818,-0.44654 2.62958,-0.80929 0.42664,-0.1736 0.29247,-0.56758 -0.34757,-1.02052 -0.82095,-0.58095 -1.71623,-1.74327 -2.32496,-3.01839 -0.49994,-1.04724 -0.79774,-2.35245 -1.00676,-4.41252 -0.10105,-0.9958 -0.12052,-1.03264 -1.14011,-2.1572 -1.20536,-1.32949 -2.39182,-3.0595 -3.17954,-4.63625 -0.84654,-1.69446 -1.55956,-3.64787 -1.56067,-4.2756 0,-0.30992 -0.13034,-1.31473 -0.28842,-2.23289 -0.70031,-4.0673 -0.82206,-5.60422 -0.81639,-10.30679 0.006,-4.89773 0.24073,-7.43026 0.72179,-7.78455 0.13463,-0.0992 0.40019,-0.84867 0.61387,-1.73264 1.09165,-4.51588 3.5297,-8.61403 7.64681,-12.85361 1.92378,-1.981 4.13688,-3.94471 7.7386,-6.86653 4.17617,-3.38783 6.60629,-5.49944 8.43872,-7.33266 0.91509,-0.91547 1.73316,-1.66449 1.81795,-1.66449 0.49545,0 3.28593,-4.88384 6.41777,-11.23231 1.49727,-3.0351 2.68962,-5.26653 2.98109,-5.57897 0.40083,-0.42965 0.65956,-1.06701 1.47962,-3.64492 l 0.99385,-3.12422 0.0917,-2.38035 c 0.11078,-2.87572 0.50334,-5.28318 1.22939,-7.53944 0.98573,-3.06321 2.83455,-6.51571 4.34462,-8.11314 0.62559,-0.66178 0.85908,-1.09754 1.59432,-2.97545 2.51801,-6.43139 6.93765,-15.89063 7.80171,-16.69775 0.62645,-0.5852 2.06227,-2.98094 2.33218,-3.8914 0.53093,-1.7908 1.37707,-2.99176 3.19382,-4.53312 0.72836,-0.61796 1.49977,-1.42298 1.71423,-1.78892 0.37777,-0.64464 0.38473,-0.70009 0.22385,-1.78184 -0.29135,-1.95888 -0.403,-1.75035 1.78391,-3.33165 4.44004,-3.21053 6.69426,-6.28733 11.50243,-15.69976 1.12856,-2.20927 2.14678,-4.09236 2.26272,-4.18468 0.11593,-0.0923 0.34648,-0.56963 0.51232,-1.06071 0.16585,-0.4911 0.5452,-1.17758 0.84303,-1.52552 0.63294,-0.73946 1.61688,-1.48595 1.9586,-1.48595 0.13151,0 0.42238,0.30341 0.64636,0.67422 l 0.40724,0.67422 -0.5359,0.77632 c -0.50041,0.7249 -0.53006,0.83048 -0.44772,1.59455 0.0485,0.45004 0.12801,0.98954 0.17667,1.1989 0.0742,0.31917 -0.004,0.4445 -0.48222,0.77613 -0.5523,0.38274 -0.60596,0.50228 -1.66588,3.71059 -2.92768,8.86196 -5.26096,13.31067 -9.17284,17.48939 -1.21808,1.30116 -1.28634,1.40865 -1.197,1.88484 0.30006,1.59948 -1.05961,4.42667 -3.18786,6.62865 -1.30257,1.34769 -1.4871,1.65447 -1.4871,2.47239 0,0.36005 -0.30074,1.06582 -0.98199,2.30451 -2.66575,4.84706 -5.99658,12.56742 -8.91479,20.66317 -0.52302,1.45097 -0.64084,1.64294 -1.65597,2.69802 -0.6011,0.62474 -1.0929,1.19985 -1.0929,1.27801 0,0.0782 -0.32651,0.68537 -0.72558,1.34935 -1.75097,2.91336 -2.69559,6.40086 -2.69597,9.9536 0,2.06285 -0.0304,2.168 -2.08389,7.26003 -3.23952,8.03316 -6.62086,14.72507 -10.2235,20.23304 -1.56449,2.39189 -2.8904,3.67759 -9.19043,8.91173 -4.10873,3.41358 -8.47395,7.73462 -10.9862,10.87499 -2.16723,2.70913 -3.49825,5.00117 -4.40587,7.58707 -1.64896,4.69809 -1.54546,13.04691 0.2276,18.35738 0.92067,2.75748 1.97136,4.37434 3.63727,5.59722 0.70436,0.51706 0.75284,0.60085 1.26575,2.18741 0.36363,1.12484 0.57424,2.12062 0.66188,3.1296 0.14728,1.69575 0.37694,2.08277 1.39916,2.35803 0.68155,0.18353 1.12441,0.14107 5.15058,-0.49379 2.13856,-0.33721 3.4485,-0.46152 4.98388,-0.47293 l 2.08281,-0.0155 4.01685,1.47557 c 2.20927,0.81157 4.06461,1.51541 4.12298,1.56409 0.0584,0.0486 -1.76762,1.35963 -4.0577,2.91322 -3.81253,2.58639 -5.65994,3.68698 -7.86961,4.68831 -0.76971,0.34879 -0.85142,0.44089 -1.56794,1.76742 l -0.75591,1.39947 -9.73876,2.65355 c -14.4461,3.93619 -22.8737,6.01383 -30.69292,7.56662 -1.29669,0.25751 -2.63564,0.56818 -2.97545,0.69037 -2.33265,0.8388 -5.85754,1.13404 -8.80031,0.7371 -4.5644,-0.61569 -4.54612,-0.61421 -4.69202,-0.38164 -0.075,0.11948 -0.10814,0.31764 -0.0738,0.44038 0.0344,0.12274 0.1074,0.54116 0.16227,0.92982 l 0.0997,0.70667 -2.28568,0.0297 -2.28567,0.0297 1.71089,0.0894 c 0.95704,0.05 -0.71454,0.0909 -3.7937,0.0928 -3.02751,0.002 -5.03594,-0.0399 -4.46316,-0.0928 z m 2.26041,-7.38143 c 0.17951,-0.0481 0.34688,-0.22682 0.37193,-0.39708 0.0291,-0.19764 0.20691,-0.3552 0.49188,-0.43579 3.52717,-0.9977 3.807,-1.04535 6.69475,-1.14004 2.48249,-0.0814 2.82667,-0.1224 2.82667,-0.33658 0,-0.36209 -101.7079,-122.84492 -102.01778,-122.856 -0.14945,-0.005 -0.28973,0.13125 -0.33428,0.32551 -0.0911,0.39719 -1.68289,94.70318 -1.60403,95.02892 0.0298,0.12307 0.97984,0.87755 2.1112,1.67662 1.65802,1.17106 2.07365,1.53599 2.14272,1.88135 0.13602,0.68014 2.19851,2.10038 4.04156,2.78305 1.86866,0.69215 1.87306,0.69547 1.66398,1.24941 -0.10582,0.28034 -0.1138,0.48533 -0.0221,0.56829 0.0789,0.0714 2.03906,1.65254 4.35596,3.51371 3.28587,2.63953 4.28663,3.36979 4.54925,3.31959 0.27955,-0.0534 0.32613,-0.009 0.27446,0.26121 -0.0927,0.48487 0.38081,0.53416 1.31897,0.13731 0.7636,-0.32301 1.23996,-0.35687 0.68989,-0.0491 -0.14251,0.0798 -0.25912,0.28008 -0.25912,0.44519 0,0.34115 0.25583,0.30187 1.22771,-0.18848 0.98225,-0.49557 4.69803,-1.26538 7.77302,-1.61034 1.97111,-0.22113 6.86269,-0.18552 9.00163,0.0655 3.26548,0.38324 5.99374,1.02199 9.71097,2.27362 2.40564,0.80999 2.52123,0.83391 3.17892,0.658 2.43087,-0.65015 4.60776,-0.24046 6.8642,1.29186 0.48688,0.33064 1.06279,0.64571 1.27982,0.70019 0.21704,0.0544 0.58914,0.33503 0.8269,0.62349 0.48044,0.58285 1.6501,1.07823 2.54582,1.07823 0.48314,0 0.56847,0.0609 0.7976,0.56897 0.22392,0.49659 0.52496,0.72219 2.36577,1.77287 3.88395,2.21687 7.91942,4.03149 10.29165,4.62781 1.45507,0.36576 1.92738,0.41322 2.61826,0.26309 0.37141,-0.0807 1.17167,0 2.61238,0.26574 1.14232,0.21015 3.31148,0.52582 4.82036,0.7015 2.02495,0.23576 2.79239,0.38052 2.93043,0.55274 0.23868,0.29781 3.11023,0.58029 3.85868,0.37958 z M 229.47592,470.29079 c 4.35262,-0.55967 8.77841,-2.13553 12.53575,-4.46352 2.5574,-1.58453 4.34019,-3.05133 7.31027,-6.01456 3.01518,-3.00824 3.06822,-3.04924 6.66627,-5.15306 1.65346,-0.9668 3.17103,-2.46256 4.36451,-4.30177 1.02165,-1.57443 3.53441,-6.25125 3.53441,-6.57837 0,-0.10634 -0.19866,-0.46761 -0.44147,-0.80279 -0.5408,-0.74656 -0.9993,-1.93796 -1.13265,-2.94322 -0.14772,-1.11359 -0.3212,-1.2895 -1.04181,-1.05648 -2.28433,0.73867 -4.36524,2.09159 -10.19274,6.62689 -4.1489,3.22891 -6.34912,4.67545 -9.18728,6.0402 -3.43151,1.65005 -6.5432,2.35952 -10.33962,2.35747 -3.13823,-10e-4 -4.64862,-0.19757 -13.78384,-1.78755 -5.91726,-1.0299 -6.35329,-1.06342 -15.39794,-1.18374 -9.13347,-0.1215 -9.27514,-0.13501 -11.12226,-1.0603 -1.22049,-0.61138 -2.02009,-1.27547 -2.82497,-2.34618 -0.66738,-0.88782 -1.9835,-3.4031 -1.85034,-3.53625 0.12826,-0.12825 1.60396,0.69441 4.04455,2.25475 3.6636,2.34223 5.35686,3.07181 7.14107,3.07688 1.46164,0.004 2.46286,-0.46835 3.77701,-1.7825 l 1.11633,-1.11633 0.9751,0.16118 c 4.47167,0.73919 8.70063,1.347 14.73653,2.11804 6.08891,0.77781 11.38281,1.50169 13.64739,1.86611 0.87125,0.14022 0.97283,-0.17435 0.39978,-1.2381 -0.75352,-1.39879 -2.21932,-3.06693 -4.61776,-5.2551 -3.23019,-2.94704 -4.45107,-4.55756 -5.29146,-6.98029 -0.31217,-0.89992 -0.71393,-3.29312 -0.71531,-4.26093 -7.1e-4,-0.55392 0.0496,-0.63929 0.50512,-0.85544 1.13889,-0.54043 2.83302,-0.20687 4.11793,0.81079 0.83865,0.66423 1.59927,2.30021 1.65566,3.56105 l 0.0433,0.96702 -0.62413,0.0454 c -0.85761,0.0623 -1.14936,-0.26996 -1.45898,-1.66165 -0.38772,-1.74275 -0.80829,-1.81744 -1.14679,-0.20364 -0.14546,0.69347 -0.13052,0.96791 0.0988,1.81508 0.40038,1.4791 1.17662,2.4981 3.82492,5.02108 3.31104,3.15435 4.23986,4.45704 4.60893,6.46414 0.0878,0.47727 0.18709,1.01838 0.22072,1.20249 0.0843,0.4615 0.53902,0.43507 1.91439,-0.11128 2.55789,-1.0161 4.91457,-2.44192 6.25698,-3.78553 1.60107,-1.6025 2.75212,-3.88998 2.98412,-5.93035 0.0821,-0.72161 0.13771,-0.84592 0.33841,-0.75588 3.65904,1.64142 6.22928,1.18293 9.95798,-1.77633 0.60064,-0.47668 2.30849,-2.07536 3.79524,-3.55261 2.98572,-2.96665 4.40162,-4.17066 5.74927,-4.88897 0.52746,-0.28112 0.89633,-0.57639 0.89625,-0.71738 -6e-5,-0.1318 -0.0962,-0.70826 -0.21369,-1.28103 -0.11746,-0.57278 -0.45783,-2.61468 -0.75638,-4.53756 -0.82858,-5.33665 -1.53987,-7.77428 -2.67152,-9.1553 -0.96313,-1.17537 -2.12452,-1.42067 -3.5773,-0.75557 -0.98282,0.44996 -1.00665,0.36683 -0.29985,-1.046 0.69823,-1.39567 1.72126,-2.39777 4.76399,-4.66648 2.77358,-2.06803 3.86101,-3.14946 4.547,-4.52186 0.55143,-1.10321 0.56905,-1.53736 0.0675,-1.66323 -1.12403,-0.28211 -1.89383,0.45887 -3.49134,3.36067 -0.42795,0.77734 -1.02252,1.67323 -1.32127,1.99089 -0.72759,0.77361 -2.37891,1.53151 -5.37829,2.46843 -6.51551,2.03527 -8.79538,2.93333 -11.7632,4.63363 -3.38815,1.94112 -5.81254,3.7046 -10.70145,7.78413 -5.09694,4.2531 -7.34695,5.83635 -10.11145,7.115 -3.75524,1.73691 -8.07449,2.43777 -11.1317,1.80629 -0.6305,-0.13023 -2.98758,-0.83899 -5.23795,-1.57503 -2.25038,-0.73603 -5.0958,-1.59517 -6.32317,-1.90918 -3.85821,-0.98712 -4.5779,-1.05577 -12.49687,-1.1917 -7.4301,-0.12754 -8.83099,-0.24139 -10.64057,-0.86467 -2.75076,-0.94745 -4.38855,-2.5637 -5.44855,-5.37689 -0.26131,-0.69351 -0.44327,-1.31243 -0.40435,-1.3754 0.0917,-0.1483 1.03931,0.46645 4.14536,2.68914 6.26317,4.48193 10.56728,5.44227 16.83142,3.75547 0.75653,-0.20372 0.87497,-0.53729 0.52521,-1.47928 -0.43598,-1.17423 -1.56313,-1.65872 -3.86286,-1.66039 -2.01068,-10e-4 -2.56532,-0.30759 -2.79076,-1.54033 -0.0944,-0.516 -0.0766,-0.56575 0.17496,-0.49124 2.84731,0.84314 9.18696,2.44265 20.14106,5.08165 4.86857,1.17289 10.00889,2.42168 11.42292,2.77508 l 2.57098,0.64253 0.61247,-0.74149 c 0.99306,-1.20227 3.35068,-3.45598 4.95353,-4.73521 4.14214,-3.30586 9.32264,-6.2332 19.79038,-11.18298 5.45552,-2.57968 10.1834,-4.95898 12.57126,-6.32645 3.72966,-2.13588 8.51566,-5.4966 8.6704,-6.08836 0.23549,-0.9005 -0.64175,-5.46769 -1.48702,-7.74192 -0.66131,-1.77929 -1.06608,-2.58822 -2.06571,-4.12843 -0.65458,-1.00856 -0.86428,-1.22737 -1.17624,-1.22737 -1.13195,0 -20.68,2.37042 -27.07552,3.28322 -10.42141,1.48738 -21.89415,3.71546 -29.75447,5.77851 -0.90007,0.23624 -1.67789,0.40434 -1.72849,0.37354 -0.0506,-0.0308 -0.17621,-0.69222 -0.27913,-1.46989 -0.10293,-0.77764 -0.26791,-1.52437 -0.36665,-1.65938 -0.16201,-0.22159 -0.25461,-0.19383 -0.95076,0.28504 -1.60444,1.10367 -2.12466,1.22068 -5.37815,1.20977 l -2.90106,-0.01 -4.53755,-0.90659 c -2.49567,-0.49863 -5.17357,-0.99089 -5.9509,-1.09394 -2.04984,-0.27173 -5.30598,-0.23893 -6.89756,0.0695 -0.72523,0.14054 -1.35023,0.22389 -1.38889,0.18524 -0.0998,-0.0999 0.44471,-0.37166 1.4099,-0.70372 0.92274,-0.31748 1.33967,-0.63021 1.54053,-1.15557 0.12457,-0.3258 0.19139,-0.3448 0.91275,-0.2595 2.08033,0.24595 11.50838,0.38048 16.6345,0.23735 11.07339,-0.3092 17.72903,-0.85455 38.96645,-3.19285 10.34101,-1.13857 16.65681,-1.78601 23.05621,-2.36352 l 2.30247,-0.20777 0.7064,-0.76825 c 2.5062,-2.72561 3.30461,-7.17791 2.41654,-13.47572 -0.36182,-2.56591 -0.52955,-2.85638 -1.22308,-2.11815 -0.97924,1.04235 -1.27037,2.84065 -1.05,6.48573 0.14932,2.46966 0.0725,4.78192 -0.15892,4.78192 -0.13986,0 -1.70695,-4.88849 -2.09842,-6.54598 -0.40009,-1.69393 -0.52582,-3.67489 -0.26441,-4.16563 0.1589,-0.29829 0.34245,-0.38666 0.92697,-0.44631 0.40087,-0.0409 0.75307,-0.14821 0.78268,-0.23845 0.0734,-0.2237 -0.99141,-1.16409 -1.76497,-1.55872 -1.04838,-0.53485 -2.14767,-0.85994 -4.50264,-1.33157 -2.66405,-0.53353 -3.51221,-0.76602 -4.5522,-1.24787 -0.42793,-0.19825 -0.88684,-0.32251 -1.01978,-0.2761 -0.39671,0.13848 -1.05997,0.82165 -1.05997,1.09178 0,0.39036 0.30155,0.55979 1.86761,1.04931 1.65207,0.5164 2.29802,1.00641 2.29802,1.74324 0,0.4022 -0.0564,0.45419 -0.58996,0.54436 -0.32447,0.0548 -1.88101,0.0787 -3.45896,0.0531 -3.22429,-0.0523 -3.68196,0.0425 -5.33971,1.10559 -1.49027,0.9557 -1.67462,1.79104 -1.09194,4.94808 0.58358,3.16201 0.52982,5.12634 -0.14032,5.12634 -0.36754,0 -1.74013,-1.63068 -2.2003,-2.61402 -1.44146,-3.08035 -0.55696,-7.80831 2.06239,-11.02416 0.47864,-0.58765 0.62503,-0.8695 0.51087,-0.98366 -0.11416,-0.11416 -0.98148,-0.0874 -3.02694,0.0934 -6.65113,0.58786 -12.4034,0.88131 -23.76945,1.2126 -13.46747,0.39255 -19.66497,0.69708 -27.70884,1.36158 -0.63415,0.0524 -1.15214,0.0689 -1.15111,0.0367 7.2e-4,-0.0322 0.20189,-0.45296 0.44632,-0.93499 0.48702,-0.96039 0.52869,-1.23064 0.27546,-1.78643 -0.24582,-0.53952 -1.13075,-0.82934 -3.01492,-0.98746 -2.48024,-0.2081 -3.06911,-0.29992 -3.87752,-0.60458 -0.44966,-0.16946 -0.79214,-0.22479 -0.87548,-0.14145 -0.15186,0.15185 0.16039,1.03977 0.72201,2.05316 l 0.35041,0.63228 -0.86738,0 c -1.18459,0 -3.98203,-0.49423 -5.5119,-0.97382 -2.92899,-0.91816 -5.51068,-2.20974 -7.3311,-3.66761 -0.58934,-0.47196 -1.15862,-0.85925 -1.26507,-0.86063 -0.46984,-0.006 -3.0119,3.26107 -4.23697,5.44554 -3.38888,6.04288 -3.43945,13.01175 -0.13858,19.09938 0.84385,1.55627 0.84699,1.56684 0.84172,2.82668 -0.005,1.16287 -0.0607,1.39616 -0.69357,2.90105 -2.23865,5.32284 -3.31413,10.09644 -3.30153,14.65408 0.008,2.74436 0.24461,4.35339 0.96427,6.54599 0.79404,2.41921 2.55664,5.07572 4.32783,6.52268 0.55937,0.45698 1.01705,0.91554 1.01705,1.01904 0,0.10349 -0.26324,1.21098 -0.58498,2.4611 -0.32173,1.25012 -0.76992,3.34364 -0.99597,4.65227 -0.35502,2.05527 -0.41204,2.79474 -0.41866,5.42917 -0.006,2.6855 0.0321,3.20625 0.32552,4.35922 1.23509,4.85389 3.79916,7.05937 11.2699,9.69375 5.59672,1.97356 8.02725,3.526 8.80071,5.62126 0.40604,1.09998 0.42911,3.36739 0.0564,5.54634 -0.32126,1.87825 -0.32354,3.02707 -0.008,3.85788 0.45683,1.20155 2.96759,3.35658 5.11853,4.39333 4.58839,2.21158 9.72535,3.23928 22.70438,4.54229 2.90478,0.2916 6.5869,0.72631 8.18249,0.96602 3.86945,0.58129 3.48907,0.54586 6.12923,0.57106 1.35758,0.0129 3.07071,-0.0722 4.09124,-0.20346 z m -3.90097,-2.41444 c -0.0529,-0.38895 -0.12845,-0.82435 -0.16799,-0.96755 -0.0396,-0.14319 -0.0376,-0.26035 0.004,-0.26035 0.0419,0 0.99392,-0.13484 2.1155,-0.29967 1.12159,-0.16482 2.06522,-0.27371 2.09697,-0.24196 0.12051,0.12052 0.3121,1.662 0.21837,1.75702 -0.054,0.0547 -0.86815,0.20717 -1.80914,0.3387 -0.94098,0.13152 -1.85738,0.27105 -2.03643,0.31008 -0.28995,0.0632 -0.33604,-0.006 -0.42162,-0.63627 z m 8.3405,-2.00895 c -0.0408,-0.18411 -0.27707,-1.80758 -0.52513,-3.60773 -0.24806,-1.80015 -0.48681,-3.49057 -0.53055,-3.7565 -0.0789,-0.47966 -0.0747,-0.48351 0.52906,-0.48351 0.70601,0 1.13009,0.34634 1.63433,1.33474 0.6609,1.29547 0.96507,4.19313 0.58416,5.56498 -0.30308,1.09155 -1.51031,1.76802 -1.69187,0.94802 z m -22.15376,-44.98655 c -0.23489,-0.12725 -1.03264,-0.69111 -1.77279,-1.25304 -1.35469,-1.02851 -2.30145,-1.47516 -3.14526,-1.48384 l -0.45701,-0.005 0.40971,-0.36059 c 1.00694,-0.88626 2.47203,-0.60344 5.49636,1.06098 1.12928,0.6215 2.05325,1.18196 2.05325,1.24549 0,0.0635 -0.23665,0.32329 -0.52588,0.57724 -0.6003,0.52707 -1.34317,0.60592 -2.05838,0.21845 z m -14.17948,-2.49572 c -2.46952,-0.82556 -4.53931,-1.55123 -4.59955,-1.6126 -0.19342,-0.19707 3.25284,-0.11912 5.537,0.12522 1.24439,0.1331 2.6505,0.19806 3.21139,0.14833 l 0.99777,-0.0885 -0.22669,0.63271 c -0.12469,0.34801 -0.27242,1.00692 -0.32829,1.46428 l -0.10161,0.83156 -4.49002,-1.50104 z M 172.6897,390.73631 c 0,-0.29257 -0.43743,-0.66165 -0.92983,-0.78453 -0.50406,-0.12581 -0.54233,-0.55476 -0.0785,-0.87966 0.2234,-0.15648 0.67105,-0.23159 1.38023,-0.23159 1.37124,0 1.71088,0.22083 1.71088,1.1124 0,0.71245 0.0643,0.67252 -1.45053,0.90113 -0.49408,0.0746 -0.63228,0.0489 -0.63228,-0.11775 z m 8.61397,-5.76253 c -1.10877,-0.58603 -2.0148,-2.01372 -2.53541,-3.99527 -0.42288,-1.60953 -0.52761,-4.46807 -0.2268,-6.19016 0.2664,-1.52513 1.01053,-3.183 1.73923,-3.8749 l 0.47005,-0.44631 -0.12525,2.00842 c -0.31125,4.9912 -0.0744,7.64674 0.85817,9.62083 0.48926,1.03568 1.66008,2.20074 2.36785,2.3562 0.58478,0.12845 0.55925,0.33746 -0.0735,0.60183 -0.71063,0.29693 -1.82896,0.26048 -2.47434,-0.0806 z m -8.53958,-0.75216 c -0.24548,-0.0709 -1.47862,-0.26618 -2.74031,-0.43396 -1.26169,-0.16778 -2.56679,-0.3785 -2.90022,-0.46828 -1.29524,-0.34879 -2.4181,-1.11523 -2.85278,-1.94727 -0.29879,-0.57194 -0.28024,-0.58454 0.42241,-0.28675 0.81713,0.34632 1.58074,0.53206 4.08658,0.99396 2.22957,0.41101 3.41866,0.86476 4.17028,1.59141 0.7049,0.68148 0.66593,0.79693 -0.18596,0.55089 z m 95.43744,57.39915 c 0.36821,-0.16481 1.64022,-0.6535 2.82668,-1.08598 1.70905,-0.62297 2.16664,-0.84775 2.20268,-1.08202 0.0477,-0.3103 -5.23926,-11.03541 -5.53064,-11.21939 -0.37923,-0.23945 -0.57808,0.35422 -0.8399,2.50734 -0.57727,4.74764 -0.76674,9.1668 -0.4513,10.52662 0.21348,0.92026 0.43046,0.96305 1.79248,0.35343 z m 27.6377,-48.33361 c 0.0962,-6.00502 0.81884,-49.09972 1.60573,-95.76596 0.78692,-46.66624 1.38991,-85.01044 1.34,-85.20934 -0.0977,-0.38935 -0.48844,-0.47472 -0.9767,-0.21341 -0.49405,0.26441 -3.95467,0.51299 -4.57827,0.32887 -0.30547,-0.0902 -1.3253,-0.34219 -2.26629,-0.55997 -1.16045,-0.26858 -1.79398,-0.49095 -1.96918,-0.69119 -0.38657,-0.44183 -3.44904,-1.28712 -7.1137,-1.9635 -2.14547,-0.39598 -2.1019,-0.37891 -7.05892,-2.76367 -2.85351,-1.37279 -8.14331,-4.7606 -11.54608,-7.39462 -1.25936,-0.97484 -3.27589,-2.52515 -4.48119,-3.44512 -1.44164,-1.10037 -2.35412,-1.91239 -2.66686,-2.37325 -0.26147,-0.38531 -1.8619,-2.70898 -3.55651,-5.16373 -1.81828,-2.63389 -3.3237,-4.98146 -3.67299,-5.72773 -0.64955,-1.38774 -1.35324,-2.14974 -4.04039,-4.3752 -2.5359,-2.1002 -4.07472,-3.17789 -5.07187,-3.55199 -1.17956,-0.44254 -2.93357,-1.31609 -3.96356,-1.97398 -1.63248,-1.04273 -1.21513,-1.0047 -5.58232,-0.50872 -2.15491,0.24474 -4.64854,0.48865 -5.54142,0.54205 -1.21099,0.0724 -1.68551,0.15917 -1.86782,0.34149 -0.45756,0.45755 -3.34848,11.25853 -3.11291,11.63032 0.23982,0.37849 0.13205,1.24136 -0.46169,3.69679 -0.32629,1.34936 -0.55431,2.57608 -0.50671,2.72603 0.0484,0.1525 -0.46035,1.92025 -1.15433,4.01101 l -1.24088,3.73835 -1.63649,1.1952 c -7.01964,5.12671 -13.62065,10.25386 -14.95162,11.61327 l -0.96702,0.98769 47.90469,95.73639 c 26.34758,52.65502 48.02963,95.94647 48.18235,96.20323 0.27698,0.46567 0.27826,0.46605 0.52782,0.15786 0.22555,-0.27856 0.26737,-1.38257 0.42513,-11.22717 z m -69.36834,-32.18344 c 7.18402,-0.46503 7.21547,-0.46833 7.21547,-0.75991 0,-0.3227 -56.01715,-112.29614 -56.2932,-112.52523 -0.20363,-0.169 -0.33683,-0.10964 -0.94533,0.42127 -1.69215,1.4764 -2.88767,2.29299 -3.50703,2.39547 -0.34267,0.0567 -1.15861,0.25138 -1.81321,0.43263 -0.72737,0.2014 -1.82655,0.36055 -2.82668,0.40928 -1.60519,0.0782 -1.65925,0.0926 -2.82667,0.75331 -2.64043,1.49434 -7.0046,4.67612 -11.07263,8.07272 -1.05561,0.88139 -2.24307,1.82134 -2.63879,2.08879 -0.89513,0.60498 -1.97491,1.49504 -3.66472,3.02084 -1.0509,0.94891 -1.79652,1.85871 -3.78477,4.6182 -3.01595,4.18582 -4.77278,6.53404 -6.35542,8.49475 -1.14717,1.42121 -1.94251,2.79031 -2.30277,3.96397 -0.12748,0.41529 -0.12239,0.63889 0.0217,0.95521 0.14903,0.32707 0.14985,0.42577 0.004,0.4744 -0.39853,0.13285 -0.10802,0.63211 1.44356,2.48089 1.32313,1.57656 1.58631,1.96849 1.45886,2.17257 -0.17189,0.27525 0.0985,0.72712 1.73314,2.89615 1.64757,2.18619 2.85907,3.18315 3.11862,2.56633 0.10783,-0.25626 0.78038,0.52614 2.0142,2.34316 1.4128,2.08059 1.70849,2.62107 2.7563,5.03826 1.20885,2.7887 4.374,8.08029 5.76072,9.63099 0.92537,1.03477 1.08752,1.32126 1.90675,3.36874 1.37145,3.42768 1.63748,4.55788 1.79485,7.62524 0.0735,1.43193 0.33142,3.94247 0.57324,5.57896 0.67473,4.56633 0.71435,5.13684 0.37399,5.38532 -0.24814,0.18116 -0.28777,0.44849 -0.33106,2.23254 -0.0602,2.4838 0.0186,2.98682 0.49681,3.16864 0.28787,0.10945 0.4344,0.38982 0.75454,1.4438 0.51329,1.68986 1.53817,4.34548 2.12796,5.51383 0.25495,0.50507 0.46355,0.99362 0.46355,1.08569 0,0.0921 -0.27578,0.47892 -0.61285,0.85969 -0.76979,0.86956 -0.9866,1.30954 -0.75798,1.53817 0.12525,0.12524 0.4137,-0.0471 1.12718,-0.67352 0.52737,-0.46301 1.06437,-0.84183 1.19333,-0.84183 0.12896,0 0.58082,0.26215 1.00415,0.58255 1.05274,0.7968 2.36879,1.41066 3.69953,1.72563 2.24077,0.53037 2.63381,0.66859 3.50813,1.23369 0.48989,0.31663 1.12878,0.85382 1.41976,1.19377 0.33109,0.3868 0.70394,0.65306 0.99645,0.71156 0.27845,0.0557 1.23532,0.71082 2.36698,1.62057 1.91662,1.5408 5.40221,4.71344 5.79592,5.27553 0.46683,0.6665 1.40582,0.91134 4.82456,1.25798 1.67398,0.16973 2.49636,0.1853 3.57053,0.0677 0.86312,-0.0945 3.15534,-0.1156 6.00756,-0.0552 4.35865,0.0922 7.97383,-0.0335 10.41229,-0.36214 0.64462,-0.0869 0.97361,-0.0676 1.19019,0.0696 0.35618,0.22572 2.15673,0.63313 3.58849,0.81196 1.76843,0.22091 8.51385,0.058 15.00982,-0.36249 z m 208.47527,-44.93636 c 1.37421,-0.94662 2.00733,-1.61468 2.26224,-2.38706 0.32433,-0.98273 -0.0808,-2.48225 -0.6944,-2.5701 -0.46751,-0.067 -2.14762,0.74267 -2.84076,1.36888 -1.06647,0.96348 -1.34105,2.08524 -0.83158,3.39719 0.29783,0.76693 0.47117,1.00722 0.72666,1.00722 0.1062,0 0.72623,-0.36726 1.37784,-0.81613 z m 110.62773,2.11788 c 0.0539,-0.26592 0.13873,-0.86845 0.18857,-1.33894 0.0499,-0.4705 0.13787,-0.85545 0.19561,-0.85545 0.111,0 0.53021,0.91088 0.65045,1.41334 0.0391,0.16365 0.11321,0.44414 0.16457,0.62331 0.08,0.27919 0.0125,0.3482 -0.47172,0.48268 -0.80697,0.2241 -0.83605,0.21109 -0.72748,-0.32494 z M 435.19846,304.00102 c -1.35069,-0.72277 -3.76621,-3.18158 -4.39343,-4.47215 -0.84889,-1.74672 -0.70697,-3.31933 0.36277,-4.02026 0.55949,-0.36659 0.76269,-0.30432 1.01826,0.31201 0.12725,0.30685 0.61153,1.49152 1.07622,2.63262 1.33119,3.26896 1.98882,4.42958 3.10251,5.47548 l 0.59407,0.55789 -0.43388,-0.004 c -0.23863,-0.002 -0.83557,-0.21892 -1.32652,-0.48162 z M 423.22132,286.6437 c -2.04178,-0.62108 -3.70541,-3.16035 -5.12268,-7.81893 -0.37316,-1.22661 -0.67847,-2.32279 -0.67847,-2.43597 0,-0.15864 0.18875,-0.19013 0.82411,-0.13743 0.70851,0.0587 0.90541,0.14772 1.40367,0.63426 0.77213,0.75396 1.26307,1.71392 2.53028,4.94754 1.0329,2.6357 1.92326,4.26852 2.57743,4.72673 0.30016,0.21024 0.27639,0.22208 -0.42167,0.21002 -0.40687,-0.007 -0.90757,-0.0638 -1.11267,-0.12622 z m 64.54262,-16.86294 c -0.0994,-0.18252 -0.18145,-0.89524 -0.18358,-1.5946 -0.004,-1.43324 0.25889,-2.11398 1.12592,-2.91145 0.48058,-0.44205 1.22369,-0.95662 1.38144,-0.95662 0.22106,0 0.86871,1.64778 0.935,2.37888 0.11871,1.30913 -0.39493,2.15345 -1.71339,2.81642 -1.21229,0.6096 -1.34636,0.63279 -1.54539,0.26737 z m -79.56765,-11.10982 c -0.87816,-0.46919 -2.23159,-2.10647 -2.23159,-2.69963 0,-0.34869 0.43629,-0.57957 1.09522,-0.57957 0.66715,0 0.9753,0.38342 1.59421,1.98363 0.25846,0.66824 0.50266,1.29866 0.54266,1.40095 0.10614,0.27138 -0.3939,0.21871 -1.0005,-0.10538 z m -5.32357,-6.20605 c -0.47454,-0.19061 -1.68101,-3.39939 -1.66338,-4.42398 0.005,-0.28028 0.0416,-0.26694 0.37342,0.13538 0.20243,0.24547 0.66865,1.02601 1.03605,1.73451 0.50742,0.97854 0.66799,1.45239 0.66799,1.97123 0,0.6752 -0.0409,0.73277 -0.41408,0.58286 z m 79.56096,-4.71858 c 0,-0.95658 0.65301,-1.65008 2.31484,-2.45838 1.68024,-0.81726 2.04155,-0.88495 2.35267,-0.44075 0.24818,0.35434 0.31354,0.96108 0.14956,1.3884 -0.12062,0.31434 -0.67065,0.59369 -2.65987,1.3509 -0.90007,0.34262 -1.75365,0.67287 -1.89685,0.73387 -0.22631,0.0964 -0.26035,0.0214 -0.26035,-0.57404 z m -7.84011,-6.37634 c 0.17007,-2.3446 1.12538,-4.28417 3.06593,-6.22472 1.77539,-1.7754 3.77073,-2.8132 5.40877,-2.8132 l 0.5806,0 -0.43764,0.55789 c -0.2407,0.30684 -1.22033,1.74944 -2.17693,3.20577 -1.9967,3.03975 -3.31762,4.52019 -5.07861,5.6919 -0.66931,0.44535 -1.26962,0.80972 -1.33405,0.80972 -0.0644,0 -0.077,-0.55232 -0.028,-1.22736 z m 0.73624,-30.70844 c -0.25676,-0.10361 -0.23928,-1.44968 0.0255,-1.96166 0.24834,-0.48024 1.31363,-1.09227 2.46644,-1.41703 0.62098,-0.17494 3.78734,-0.68841 4.24513,-0.68841 0.16408,0 0.0501,1.24206 -0.14941,1.62783 -0.48094,0.93004 -2.23186,1.93282 -4.04591,2.31718 -1.00198,0.21231 -2.17816,0.2688 -2.54174,0.12209 z m -9.85617,-5.49083 c 0,-0.43178 1.75541,-3.87961 2.41854,-4.75032 0.66514,-0.87332 1.57891,-1.66221 2.65779,-2.29456 0.76365,-0.44758 2.96558,-1.23028 3.20388,-1.13883 0.27917,0.10712 0.26778,2.16446 -0.0157,2.84302 -0.54882,1.31351 -1.821,2.3907 -4.35235,3.6853 -2.76383,1.41348 -3.91213,1.89938 -3.91213,1.65539 z"
       style="fill:#010100" />
  </g>
</svg>
